<?xml version="1.0" standalone="no"?><!DOCTYPE svg PUBLIC "-//W3C//DTD SVG 1.1//EN" "http://www.w3.org/Graphics/SVG/1.1/DTD/svg11.dtd"><svg t="1592101807827" class="icon" viewBox="0 0 1024 1024" version="1.1" xmlns="http://www.w3.org/2000/svg" p-id="2578" xmlns:xlink="http://www.w3.org/1999/xlink" width="200" height="200"><defs><style type="text/css"></style></defs><path d="M810.666667 128H213.333333c-46.933333 0-85.333333 38.4-85.333333 85.333333v597.333334a85.333333 85.333333 0 0 0 85.333333 85.333333h597.333334c46.933333 0 85.333333-38.4 85.333333-85.333333V213.333333a85.333333 85.333333 0 0 0-85.333333-85.333333z m-298.666667 416.426667c0 17.493333-14.506667 32-32 32H469.333333v31.573333c0 17.493333-14.506667 32-32 32s-32-14.506667-32-32v-32h-85.333333c-23.466667 0-42.666667-19.2-42.666667-42.666667V416c0-17.493333 14.506667-32 32-32s32 14.506667 32 32V512h64V416c0-17.493333 14.506667-32 32-32s32 14.506667 32 32V512h10.666667c17.493333 0 32 14.506667 32 32v0.426667z m233.386667 48.64c9.386667 14.08 5.546667 32.853333-8.533334 41.813333a29.952 29.952 0 0 1-41.813333-8.533333L618.666667 512v95.573333c0 17.493333-14.506667 32-32 32a31.573333 31.573333 0 0 1-32-31.573333v-192c0-17.493333 14.506667-32 32-32s32 14.506667 32 32v95.573333l76.373333-114.346666a30.293333 30.293333 0 0 1 41.813333-8.533334c14.08 9.386667 17.493333 28.16 8.533334 41.813334L691.2 512l54.186667 81.066667z" p-id="2579" fill="#ffffff"></path></svg>