<?xml version="1.0" standalone="no"?><!DOCTYPE svg PUBLIC "-//W3C//DTD SVG 1.1//EN" "http://www.w3.org/Graphics/SVG/1.1/DTD/svg11.dtd"><svg t="1594456243710" class="icon" viewBox="0 0 1024 1024" version="1.1" xmlns="http://www.w3.org/2000/svg" p-id="7383" xmlns:xlink="http://www.w3.org/1999/xlink" width="16" height="16"><defs><style type="text/css"></style></defs><path d="M950.877091 512c0 7.354182-0.279273 14.661818-0.605091 21.876364l-0.186182 2.466909c-0.325818 6.050909-0.791273 12.055273-1.396363 18.013091l-0.512 5.445818a453.352727 453.352727 0 0 1-1.861819 14.475636l-1.024 7.028364a436.782545 436.782545 0 0 1-82.804363 194.56 405.271273 405.271273 0 0 0-268.427637-194.094546 189.253818 189.253818 0 1 0-164.119272 0 405.271273 405.271273 0 0 0-268.427637 194.001455A436.596364 436.596364 0 0 1 78.801455 581.818182l-1.117091-7.540364a437.992727 437.992727 0 0 1-1.815273-14.196363l-0.605091-5.678546a436.968727 436.968727 0 0 1-1.396364-18.059636l-0.093091-2.373818A440.785455 440.785455 0 0 1 73.076364 512c0-242.315636 196.561455-438.877091 438.877091-438.877091S950.877091 269.730909 950.877091 512M1024 512C1024 229.748364 794.344727 0.093091 512.186182 0H512C229.655273 0 0 229.655273 0 512c0 282.251636 229.655273 512 512 512h0.372364l7.121454-0.093091c2.048 0 4.049455 0 6.050909-0.093091 3.677091-0.093091 7.307636-0.232727 10.938182-0.465454l2.234182-0.046546c3.956364-0.186182 7.912727-0.465455 11.822545-0.744727l1.210182-0.093091c4.142545-0.325818 8.285091-0.698182 12.381091-1.117091h0.418909a511.348364 511.348364 0 0 0 331.589818-170.914909 18.059636 18.059636 0 0 1-0.093091-0.279273A509.812364 509.812364 0 0 0 1024 512" p-id="7384" fill="#ffffff"></path></svg>