<?xml version="1.0" standalone="no"?><!DOCTYPE svg PUBLIC "-//W3C//DTD SVG 1.1//EN" "http://www.w3.org/Graphics/SVG/1.1/DTD/svg11.dtd"><svg t="1594456219313" class="icon" viewBox="0 0 1024 1024" version="1.1" xmlns="http://www.w3.org/2000/svg" p-id="6553" xmlns:xlink="http://www.w3.org/1999/xlink" width="16" height="16"><defs><style type="text/css"></style></defs><path d="M808.421 778.779c0 13.474-10.779 26.947-26.947 26.947-13.474 0-26.948-10.779-26.948-26.947v-2.695-2.695c-16.168-118.568-118.568-204.8-239.831-204.8H512h-2.695c-121.263 0-220.968 86.232-239.831 202.106v10.779c0 16.168-13.474 26.947-26.948 26.947s-26.947-13.474-26.947-26.947v-2.695-5.39C229.053 665.6 301.81 576.674 401.516 538.947c-56.59-37.726-94.316-102.4-94.316-175.158 0-115.873 88.926-207.494 204.8-207.494 115.874 0 204.8 94.316 204.8 207.494 0 75.453-37.726 140.127-94.316 175.158 97.01 37.727 169.769 123.958 185.937 231.748v8.084zM668.295 361.095c0-86.232-70.063-156.295-156.295-156.295s-156.295 70.063-156.295 156.295c0 86.231 70.063 156.294 156.295 156.294 86.232 0 156.295-70.063 156.295-156.294z" p-id="6554" fill="#ffffff"></path><path d="M512 1024C229.053 1024 0 794.947 0 512S229.053 0 512 0s512 229.053 512 512-229.053 512-512 512z m0-978.19C256 45.81 45.81 253.306 45.81 512S253.306 978.19 512 978.19 978.19 770.694 978.19 512 768 45.81 512 45.81z" p-id="6555" fill="#ffffff"></path></svg>