<?xml version="1.0" standalone="no"?><!DOCTYPE svg PUBLIC "-//W3C//DTD SVG 1.1//EN" "http://www.w3.org/Graphics/SVG/1.1/DTD/svg11.dtd"><svg t="1592804128534" class="icon" viewBox="0 0 1024 1024" version="1.1" xmlns="http://www.w3.org/2000/svg" p-id="2534" xmlns:xlink="http://www.w3.org/1999/xlink" width="16" height="16"><defs><style type="text/css"></style></defs><path d="M972.90993 563.2c-9.4-5.5-13.1-14.6-13.1-23.8v-51.2c0-9.1 5.6-18.3 13.1-23.8 48.7-27.4 65.6-85.9 37.5-133.5l-88.1-148.1c-13.1-21.9-33.7-38.4-60-45.7-24.4-7.3-52.5-3.7-75 9.1-9.4 3.7-18.7 3.7-28.1-1.8-15-9.1-30-18.3-45-25.6-9.4-3.7-15-12.8-15-21.9 0-53-45-96.9-101.2-96.9H423.70993c-54.4 0-99.3 43.9-99.3 95.1 0 9.1-5.6 18.3-15 21.9-15 7.3-30 16.5-45 25.6-7.5 5.5-18.7 5.5-26.2 1.8-48.7-25.6-108.7-11-136.8 36.6L13.20993 329.1C-12.99007 376.7 1.90993 435.2 50.70993 462.6c9.4 5.5 13.1 14.6 13.1 23.8v51.2c0 9.1-5.6 18.3-13.1 23.8-22.5 12.8-39.4 32.9-46.9 58.5s-3.7 53 9.4 75l90 146.3c28.1 47.5 88.1 64 136.8 36.6 7.5-3.7 16.9-3.7 26.2 1.8 15 9.1 30 18.3 45 25.6 9.4 3.7 15 12.8 15 21.9 0 53 45 96.9 99.3 96.9h174.3c54.4 0 99.3-43.9 97.5-96.9 0-9.1 5.6-18.3 15-21.9 15-7.3 30-16.5 45-25.6 9.4-5.5 20.6-7.3 28.1-1.8 48.7 25.6 108.7 9.1 136.8-36.6l88.1-144.5c13.1-23.8 16.9-51.2 9.4-75-7.4-23.8-24.3-45.7-46.8-58.5z m-9.4 99.9l-92 153.9c-5.9 11.4-23.5 17.1-35.3 9.5-33.3-19-76.4-17.1-109.7 3.8-13.7 7.6-25.5 15.2-39.2 20.9-37.2 17.1-58.8 53.2-58.8 91.2 0 13.3-11.8 24.7-25.5 24.7H420.90993c-13.7 0-25.5-11.4-25.5-24.7 0-38-23.5-74.1-58.8-91.2-13.7-5.7-27.4-13.3-39.2-20.9-17.6-11.4-39.2-17.1-58.8-17.1-17.6 0-35.3 3.8-50.9 11.4-11.8 7.6-27.4 1.9-35.3-9.5L60.50993 661.2c-2-5.7-3.9-13.3-2-19 2-5.7 5.9-11.4 11.8-15.2 35.3-19 54.9-55.1 52.9-95v-41.8c2-39.9-17.6-76-52.9-95-11.8-5.7-17.6-22.8-9.8-34.2l90.1-154c5.9-11.4 23.5-17.1 35.3-9.5 35.3 19 78.4 17.1 111.7-3.8 13.7-7.6 25.5-15.2 39.2-20.9 37.2-17.1 58.8-53.2 58.8-91.2 0-13.3 11.8-24.7 27.4-24.7h182.2c13.7 0 25.5 11.4 27.4 26.6 0 38 23.5 74.1 58.8 91.2 13.7 5.7 27.4 13.3 39.2 20.9 33.3 20.9 74.4 22.8 109.7 3.8 5.9-1.9 13.7-3.8 19.6-1.9 5.9 1.9 11.8 5.7 15.7 11.4l88.2 153.9c7.8 11.4 2 26.6-9.8 34.2-35.3 19-54.9 55.1-52.9 95v41.8c-2 39.9 17.6 76 52.9 95 5.9 3.8 9.8 9.5 11.8 15.2 1.7 5.8 1.7 13.4-2.3 19.1z" p-id="2535" fill="#ffffff"></path><path d="M512.00993 284.4c-125.2 0-227.6 102.4-227.6 227.6S386.80993 739.6 512.00993 739.6 739.60993 637.2 739.60993 512 637.20993 284.4 512.00993 284.4z m0 398.3c-93.9 0-170.7-76.8-170.7-170.7S418.10993 341.3 512.00993 341.3 682.70993 418.1 682.70993 512 605.90993 682.7 512.00993 682.7z" p-id="2536" fill="#ffffff"></path></svg>