<?xml version="1.0" standalone="no"?><!DOCTYPE svg PUBLIC "-//W3C//DTD SVG 1.1//EN" "http://www.w3.org/Graphics/SVG/1.1/DTD/svg11.dtd"><svg t="1592804351412" class="icon" viewBox="0 0 1024 1024" version="1.1" xmlns="http://www.w3.org/2000/svg" p-id="5537" xmlns:xlink="http://www.w3.org/1999/xlink" width="16" height="16"><defs><style type="text/css"></style></defs><path d="M976 409.6l-120.512 0c-7.104-23.872-16.576-46.656-28.16-68.096l85.184-85.184c18.752-18.688 18.752-49.152 0-67.904l-76.928-76.928c-18.752-18.752-49.216-18.752-67.84 0l-85.248 85.184c-21.44-11.584-44.224-21.12-68.096-28.16L614.4 48C614.4 21.44 592.96 0 566.4 0L457.6 0C431.04 0 409.6 21.44 409.6 48l0 120.448c-23.936 7.104-46.656 16.576-68.096 28.16L256.256 111.488c-18.688-18.752-49.152-18.752-67.904 0L111.488 188.416c-18.752 18.752-18.752 49.216 0 67.904l85.184 85.184C185.088 362.944 175.552 385.728 168.512 409.6L48 409.6C21.504 409.6 0 431.104 0 457.6l0 108.8C0 592.896 21.504 614.4 48 614.4l120.512 0c7.04 23.872 16.576 46.656 28.16 68.096l-85.184 85.184c-18.752 18.752-18.752 49.152 0 67.904l76.864 76.928c18.752 18.752 49.28 18.752 67.904 0l85.248-85.184c21.44 11.648 44.224 21.12 68.096 28.224l0 120.448C409.6 1002.496 431.04 1024 457.6 1024L566.4 1024c26.56 0 48-21.504 48-48l0-120.448c23.872-7.104 46.656-16.64 68.096-28.224l85.248 85.184c18.688 18.752 49.088 18.752 67.84 0l76.928-76.928c18.752-18.752 18.752-49.152 0-67.904l-85.184-85.184c11.648-21.504 21.056-44.224 28.16-68.096l120.512 0C1002.496 614.4 1024 592.896 1024 566.4l0-108.8C1024 431.104 1002.496 409.6 976 409.6L976 409.6zM512 716.736c-113.152 0-204.864-91.648-204.864-204.736S398.848 307.2 512 307.2s204.8 91.712 204.8 204.8S625.152 716.736 512 716.736L512 716.736z" p-id="5538" fill="#ffffff"></path></svg>