<?xml version="1.0" standalone="no"?><!DOCTYPE svg PUBLIC "-//W3C//DTD SVG 1.1//EN" "http://www.w3.org/Graphics/SVG/1.1/DTD/svg11.dtd"><svg t="1592804218674" class="icon" viewBox="0 0 1024 1024" version="1.1" xmlns="http://www.w3.org/2000/svg" p-id="2718" xmlns:xlink="http://www.w3.org/1999/xlink" width="16" height="16"><defs><style type="text/css"></style></defs><path d="M910.720515 416.785451l-78.121242 0c-7.372921-15.887852-17.801435-48.872081-31.163767-72.385611l55.161321-53.642734c17.428951-17.418718 17.453511-44.812625 0.048095-62.220087l-62.99166-62.60485c-17.382902-17.381879-45.595454-17.189498-63.002916 0.204661l-52.100612 55.257511c-23.503297-13.33675-56.499805-23.707958-72.364121-31.067576L606.185614 112.240317c0-24.64633-26.067702-44.572148-50.66696-44.572148l-89.059362 0c-24.585955 0-50.66696 19.925818-50.66696 44.572148l0 78.108962c-15.888875 7.384178-48.89664 17.792225-72.386634 31.140231l-53.643758-55.183833c-17.442254-17.407462-44.823881-17.407462-62.183248-0.023536l-62.641689 63.014172c-17.370623 17.36039-17.202801 45.559639 0.229221 63.015196l55.257511 52.089355c-13.360286 23.514553-23.695678 56.497759-31.080879 72.385611l-78.085426 0c-24.669866 0-44.583404 26.068725-44.583404 50.679239l0 89.048105c0 24.589025 19.912515 50.704822 44.583404 50.704822l78.085426 0c7.408737 15.85306 17.841344 48.872081 31.176047 72.396867l-55.160297 53.584406c-17.455557 17.47807-17.455557 44.809555-0.048095 62.21804l62.9671 62.654992c17.382902 17.358343 45.595454 17.214057 63.014172-0.251733l52.113915-55.246255c23.489994 13.335726 56.496735 23.696702 72.386634 31.068599l0 78.120218c0 24.601304 26.081005 44.571125 50.6424 44.571125l89.060385 0c24.586978 0 50.690496-19.96982 50.690496-44.571125l0-78.120218c15.864316-7.371898 48.860824-17.817808 72.375377-31.16479l53.655014 55.158251c17.408485 17.419741 44.802392 17.419741 62.207807 0l62.619176-62.965054c17.356296-17.370623 17.202801-45.571918-0.232291-62.966077l-55.266721-52.136428c13.346983-23.52581 23.682375-56.496735 31.055297-72.349795l78.121242 0c24.648376 0 44.558845-26.105564 44.558845-50.655703l0-89.096201C955.278337 442.854177 935.367869 416.785451 910.720515 416.785451M510.984369 712.342888c-110.682845 0-200.38075-89.696882-200.38075-200.366424 0-110.707404 89.697905-200.403263 200.38075-200.403263 110.695125 0 200.36847 89.696882 200.36847 200.403263C711.351815 622.646006 621.679493 712.342888 510.984369 712.342888" p-id="2719" fill="#ffffff"></path></svg>