<?xml version="1.0" standalone="no"?><!DOCTYPE svg PUBLIC "-//W3C//DTD SVG 1.1//EN" "http://www.w3.org/Graphics/SVG/1.1/DTD/svg11.dtd"><svg t="1591972609833" class="icon" viewBox="0 0 1024 1024" version="1.1" xmlns="http://www.w3.org/2000/svg" p-id="9076" xmlns:xlink="http://www.w3.org/1999/xlink" width="200" height="200"><defs><style type="text/css"></style></defs><path d="M401.1 865.6c0 52.1 43.4 94.4 96.9 94.4h24.2c53.5 0 96.9-42.3 96.9-94.4v-29.4h-218v29.4z m430.7-466.4c-12.4-15-265.9-289.9-287.4-315.5-24.4-37.1-73.6-10.4-73.5-10.5-16.2 18.1-258 301.1-276 322.5-13.2 15.7-14.1 49 37.4 49.6 10.5 0.1 80.3 3.3 168.8 5.8v107h218V453.4c92.3-1.1 160.6-4.3 168-1.9 36.7 12.1 60.3-33.6 44.7-52.3zM401.1 743.6h218v-92.7h-218v92.7z" fill="#ffffff" p-id="9077"></path></svg>