<?xml version="1.0" standalone="no"?><!DOCTYPE svg PUBLIC "-//W3C//DTD SVG 1.1//EN" "http://www.w3.org/Graphics/SVG/1.1/DTD/svg11.dtd"><svg t="1591972645315" class="icon" viewBox="0 0 1024 1024" version="1.1" xmlns="http://www.w3.org/2000/svg" p-id="9893" xmlns:xlink="http://www.w3.org/1999/xlink" width="200" height="200"><defs><style type="text/css"></style></defs><path d="M52.736 128.512c-9.216 2.56-20.992 11.264-25.6 18.432-8.704 12.8-9.216 37.888-9.216 350.208 0 361.472-0.512 355.328 26.624 367.616 8.704 4.096 110.08 5.632 337.408 5.632h324.608l-17.92-26.112c-22.016-31.744-33.28-68.608-33.28-107.52 0-33.28 15.872-88.064 30.72-107.008l9.728-12.8-36.864-37.376-36.864-37.376L552.96 614.4l-69.12 71.68-94.208-117.76-94.72-117.76-93.696 140.8-93.696 140.8h-40.96V174.08H896v367.104l19.456 6.144c10.24 3.584 22.016 7.68 25.6 8.704 4.608 2.56 6.144-38.912 6.144-196.096 0-175.616-1.024-200.192-8.192-210.944-18.944-26.624-11.264-26.112-456.192-25.6-240.64 0-420.864 2.56-430.08 5.12z" p-id="9894" fill="#ffffff"></path><path d="M693.76 270.848c-24.064 6.144-36.864 14.336-52.224 34.816-11.264 14.848-14.336 24.576-15.872 52.224-1.536 28.672 0 36.352 10.24 51.712 18.432 27.648 51.2 42.496 87.04 39.424 55.296-4.608 82.944-34.304 82.944-88.064 0-18.944-3.584-37.376-9.216-47.616-16.384-31.744-65.024-51.712-102.912-42.496zM794.112 589.312c-75.264 29.696-114.176 116.224-89.6 199.68 11.776 39.936 59.392 87.04 100.352 98.816 62.976 17.92 121.856 4.096 163.328-38.4 33.792-34.816 47.104-71.68 44.544-122.368-3.584-60.928-31.744-104.96-83.456-132.096-36.352-18.432-96.256-20.992-135.168-5.632z m103.424 99.328l39.936 43.52h-57.344l1.536 56.32 1.536 56.32h-53.76V732.672l-26.624-1.536-26.624-1.536 37.888-42.496c20.992-23.04 38.912-41.984 40.448-41.984 2.048 0 20.992 19.456 43.008 43.52z" p-id="9895" fill="#ffffff"></path></svg>