<?xml version="1.0" standalone="no"?><!DOCTYPE svg PUBLIC "-//W3C//DTD SVG 1.1//EN" "http://www.w3.org/Graphics/SVG/1.1/DTD/svg11.dtd"><svg t="1592050733336" class="icon" viewBox="0 0 1024 1024" version="1.1" xmlns="http://www.w3.org/2000/svg" p-id="5003" xmlns:xlink="http://www.w3.org/1999/xlink" width="200" height="200"><defs><style type="text/css"></style></defs><path d="M819.2 273.066667h-175.104l98.645333-114.346667a34.133333 34.133333 0 0 0-51.882666-44.714667L553.984 273.066667h-95.232L299.349333 80.554667a34.133333 34.133333 0 1 0-52.565333 43.690666L370.005333 273.066667H204.8a136.533333 136.533333 0 0 0-136.533333 136.533333v409.6a136.533333 136.533333 0 0 0 136.533333 136.533333h614.4a136.533333 136.533333 0 0 0 136.533333-136.533333V409.6a136.533333 136.533333 0 0 0-136.533333-136.533333z m68.266667 546.133333a68.266667 68.266667 0 0 1-68.266667 68.266667H204.8a68.266667 68.266667 0 0 1-68.266667-68.266667V409.6a68.266667 68.266667 0 0 1 68.266667-68.266667h614.4a68.266667 68.266667 0 0 1 68.266667 68.266667z" p-id="5004" fill="#ffffff"></path><path d="M665.6 584.704l-238.933333-136.533333A34.133333 34.133333 0 0 0 375.466667 477.866667v273.066666a34.133333 34.133333 0 0 0 51.2 29.696l238.933333-136.533333a34.133333 34.133333 0 0 0 0-59.392zM443.733333 692.224v-155.648L580.266667 614.4z" p-id="5005" fill="#ffffff"></path></svg>